<svg width="11" height="14" viewBox="0 0 11 14" fill="none" xmlns="http://www.w3.org/2000/svg">
<path d="M9.77778 6.5H1.22222C0.547207 6.5 0 7.04721 0 7.72222V12C0 12.675 0.547207 13.2222 1.22222 13.2222H9.77778C10.4528 13.2222 11 12.675 11 12V7.72222C11 7.04721 10.4528 6.5 9.77778 6.5Z" fill="#5A13B4"/>
<path fill-rule="evenodd" clip-rule="evenodd" d="M5.50001 2C4.95485 2 4.43201 2.21657 4.04652 2.60206C3.66103 2.98755 3.44446 3.51039 3.44446 4.05556V6.5C3.44446 7.05228 2.99674 7.5 2.44446 7.5C1.89217 7.5 1.44446 7.05228 1.44446 6.5V4.05556C1.44446 2.97996 1.87174 1.94841 2.6323 1.18784C3.39287 0.427281 4.42441 0 5.50001 0C6.57561 0 7.60716 0.427281 8.36772 1.18784C9.12829 1.94841 9.55557 2.97996 9.55557 4.05556V6.5C9.55557 7.05228 9.10785 7.5 8.55557 7.5C8.00328 7.5 7.55557 7.05228 7.55557 6.5V4.05556C7.55557 3.51039 7.339 2.98755 6.95351 2.60206C6.56802 2.21657 6.04518 2 5.50001 2Z" fill="#5A13B4"/>
</svg>
