<svg width="15" height="15" viewBox="0 0 15 15" fill="none" xmlns="http://www.w3.org/2000/svg">
<g opacity="0.3">
<path fill-rule="evenodd" clip-rule="evenodd" d="M6.77777 2C4.13908 2 2 4.13908 2 6.77777C2 9.41646 4.13908 11.5555 6.77777 11.5555C9.41646 11.5555 11.5555 9.41646 11.5555 6.77777C11.5555 4.13908 9.41646 2 6.77777 2ZM0 6.77777C0 3.03451 3.03451 0 6.77777 0C10.521 0 13.5555 3.03451 13.5555 6.77777C13.5555 10.521 10.521 13.5555 6.77777 13.5555C3.03451 13.5555 0 10.521 0 6.77777Z" fill="#5A13B4"/>
<path fill-rule="evenodd" clip-rule="evenodd" d="M10.1513 10.1513C10.5418 9.76077 11.175 9.76077 11.5655 10.1513L14.7071 13.293C15.0977 13.6835 15.0977 14.3166 14.7071 14.7072C14.3166 15.0977 13.6834 15.0977 13.2929 14.7072L10.1513 11.5655C9.76074 11.175 9.76074 10.5418 10.1513 10.1513Z" fill="#5A13B4"/>
</g>
</svg>
