<svg width="17" height="17" viewBox="0 0 17 17" fill="none" xmlns="http://www.w3.org/2000/svg">
<path fill-rule="evenodd" clip-rule="evenodd" d="M8.67861 1.5C4.91124 1.5 1.85718 4.55406 1.85718 8.32143C1.85718 12.0888 4.91124 15.1429 8.67861 15.1429C12.446 15.1429 15.5 12.0888 15.5 8.32143C15.5 4.55406 12.446 1.5 8.67861 1.5ZM0.857178 8.32143C0.857178 4.00177 4.35895 0.5 8.67861 0.5C12.9983 0.5 16.5 4.00177 16.5 8.32143C16.5 12.6411 12.9983 16.1429 8.67861 16.1429C4.35895 16.1429 0.857178 12.6411 0.857178 8.32143Z" fill="white"/>
<path fill-rule="evenodd" clip-rule="evenodd" d="M8.32507 5.03933C8.52033 4.84407 8.83691 4.84407 9.03217 5.03933L11.9607 7.9679C12.156 8.16316 12.156 8.47975 11.9607 8.67501L9.03217 11.6036C8.83691 11.7988 8.52033 11.7988 8.32507 11.6036C8.1298 11.4083 8.1298 11.0917 8.32507 10.8965L10.9001 8.32145L8.32507 5.74644C8.1298 5.55117 8.1298 5.23459 8.32507 5.03933Z" fill="white"/>
<path fill-rule="evenodd" clip-rule="evenodd" d="M5.25003 8.32141C5.25003 8.04527 5.47389 7.82141 5.75003 7.82141H11.6072C11.8833 7.82141 12.1072 8.04527 12.1072 8.32141C12.1072 8.59755 11.8833 8.82141 11.6072 8.82141H5.75003C5.47389 8.82141 5.25003 8.59755 5.25003 8.32141Z" fill="white"/>
</svg>
