<svg width="17" height="17" viewBox="0 0 17 17" fill="none" xmlns="http://www.w3.org/2000/svg">
<path fill-rule="evenodd" clip-rule="evenodd" d="M8.32143 1.5C4.55406 1.5 1.5 4.55406 1.5 8.32143C1.5 12.0888 4.55406 15.1429 8.32143 15.1429C12.0888 15.1429 15.1429 12.0888 15.1429 8.32143C15.1429 4.55406 12.0888 1.5 8.32143 1.5ZM0.5 8.32143C0.5 4.00177 4.00177 0.5 8.32143 0.5C12.6411 0.5 16.1429 4.00177 16.1429 8.32143C16.1429 12.6411 12.6411 16.1429 8.32143 16.1429C4.00177 16.1429 0.5 12.6411 0.5 8.32143Z" fill="white"/>
<path fill-rule="evenodd" clip-rule="evenodd" d="M8.67498 5.03933C8.87024 5.23459 8.87024 5.55117 8.67498 5.74644L6.09996 8.32145L8.67498 10.8965C8.87024 11.0917 8.87024 11.4083 8.67498 11.6036C8.47972 11.7988 8.16313 11.7988 7.96787 11.6036L5.0393 8.67501C4.84404 8.47975 4.84404 8.16316 5.0393 7.9679L7.96787 5.03933C8.16313 4.84407 8.47972 4.84407 8.67498 5.03933Z" fill="white"/>
<path fill-rule="evenodd" clip-rule="evenodd" d="M4.89285 8.32141C4.89285 8.04527 5.11671 7.82141 5.39285 7.82141H11.25C11.5261 7.82141 11.75 8.04527 11.75 8.32141C11.75 8.59755 11.5261 8.82141 11.25 8.82141H5.39285C5.11671 8.82141 4.89285 8.59755 4.89285 8.32141Z" fill="white"/>
</svg>
